<svg width="16" height="16" viewBox="0 0 16 16" fill="none" xmlns="http://www.w3.org/2000/svg">
<path d="M13.2385 3.62074C12.9358 3.31792 12.5765 3.07771 12.1809 2.91382C11.7854 2.74993 11.3615 2.66558 10.9333 2.66558C10.5052 2.66558 10.0812 2.74993 9.68571 2.91382C9.29018 3.07771 8.93082 3.31792 8.62815 3.62074L8 4.24888L7.37185 3.62074C6.76048 3.00936 5.93128 2.6659 5.06666 2.6659C4.20205 2.6659 3.37285 3.00936 2.76148 3.62074C2.15011 4.23211 1.80664 5.06131 1.80664 5.92592C1.80664 6.79053 2.15011 7.61973 2.76148 8.23111L3.38963 8.85925L8 13.4696L12.6104 8.85925L13.2385 8.23111C13.5413 7.92844 13.7815 7.56907 13.9454 7.17354C14.1093 6.77801 14.1937 6.35406 14.1937 5.92592C14.1937 5.49778 14.1093 5.07384 13.9454 4.6783C13.7815 4.28277 13.5413 3.92341 13.2385 3.62074Z" fill="#6100C2" stroke="#6100C2" stroke-width="1.18519" stroke-linecap="round" stroke-linejoin="round"/>
</svg>
